<svg id="Dark" xmlns="http://www.w3.org/2000/svg" viewBox="0 0 500 500"><defs><style>.cls-1{font-size:100px;}.cls-1,.cls-4{fill:#fff;font-family:MicrosoftYaHeiUI, Microsoft YaHei UI;}.cls-2{letter-spacing:-0.05em;}.cls-3{fill:none;stroke:#fff;stroke-miterlimit:10;stroke-width:10px;}.cls-4{font-size:36px;}</style></defs><text class="cls-1" transform="translate(79.28 286.94)">PH<tspan class="cls-2" x="138.53" y="0">OT</tspan><tspan x="267.68" y="0">O</tspan></text><path class="cls-3" d="M202.78,206.75c.12-7,1.33-16.58,6.75-24,7.12-9.71,16.74-9.24,55.2-8.87,36.9.36,46.42.11,53.2,9.79,5.25,7.5,6.12,17.07,6.06,23.75"/><path class="cls-3" d="M324,293.25c-.18,7-1.87,16.58-9.5,24-10,9.71-23.5,9.24-77.51,8.87-51.82-.36-65.2-.11-74.71-9.79-7.38-7.5-8.6-17.07-8.52-23.75"/><text class="cls-4" transform="translate(150.79 201.47)">RE</text></svg>