<?xml version="1.0" encoding="UTF-8"?><svg id="a" xmlns="http://www.w3.org/2000/svg" viewBox="0 0 512 512"><defs><style>.b{font-family:Brother-1816-Bold, Brother 1816;font-size:51.86px;}.b,.c{fill:#231f20;}.d{letter-spacing:.04em;}.e{letter-spacing:.04em;}</style></defs><text class="b" transform="translate(97.82 509.75)"><tspan class="d" x="0" y="0">RAMI</tspan><tspan x="138.25" y="0">M </tspan><tspan class="e" x="195.55" y="0">ALA</tspan><tspan x="301.19" y="0">M</tspan></text><path class="c" d="M441.02,450.31l-93.97-173c48.54-19.29,85.26-62.23,85.26-127.57C432.31,53.9,363.23,2.25,259.31,2.25h-97.59c-40.94,7.75-55.21,36.5-59.85,60.18V450.31h24.46c24.79-2.66,60.71-14.74,69.51-61.26V82.53h65.96c43.56,0,74.05,22.4,74.05,67.21s-29.25,66.59-71.56,66.59h-45.78l42.05,77.16,54.99,109.12c9.1,14.73,39.12,47.7,125.48,47.7Z"/></svg>